<?xml version="1.0" encoding="UTF-8" standalone="no"?>
<!DOCTYPE svg PUBLIC "-//W3C//DTD SVG 20010904//EN"
              "http://www.w3.org/TR/2001/REC-SVG-20010904/DTD/svg10.dtd">

<svg xmlns="http://www.w3.org/2000/svg"
     width="618.56mm" height="423.43mm" 
     viewBox="0 0 1753 1200">
  <path id="Blue"
        fill="#00558b" stroke="black" stroke-width="1" opacity="0.25"
        d="M 1188.00,233.00
           C 1188.00,233.00 1188.56,163.25 1184.44,153.69
             1181.52,140.65 1176.67,121.77 1170.30,110.00
             1140.91,55.67 1078.04,38.69 1020.00,38.01
             1020.00,38.01 861.00,38.00 861.00,38.00
             816.73,38.53 749.83,51.69 717.52,83.55
             676.68,123.81 677.39,194.80 678.01,248.00
             678.42,282.90 688.72,332.05 711.98,358.88
             750.74,403.60 824.33,406.51 879.00,410.26
             879.00,410.26 921.00,413.01 921.00,413.01
             921.00,413.01 954.94,415.06 954.94,415.06
             985.27,416.38 1032.99,411.89 1051.88,440.38
             1061.03,454.18 1060.52,475.90 1060.50,491.75
             1060.48,506.31 1059.48,524.43 1052.44,537.69
             1042.28,556.81 1025.25,560.24 1005.38,563.56
             1005.38,563.56 896.06,564.12 896.06,564.12
             870.68,564.09 841.21,561.53 826.69,537.50
             819.86,526.20 817.66,510.21 817.31,497.19
             817.13,490.20 817.31,472.06 817.31,472.06
             817.31,472.06 677.44,471.88 677.44,471.88
             677.44,527.45 674.31,591.85 717.52,634.45
             744.48,661.04 782.89,670.07 819.00,675.26
             859.91,681.14 900.78,680.00 942.00,680.00
             984.68,680.00 1025.65,681.23 1068.00,674.24
             1103.50,668.38 1140.36,657.95 1166.45,631.48
             1206.66,590.70 1204.75,524.33 1204.12,470.56
             1203.93,454.22 1201.62,410.50 1196.88,395.00
             1172.75,315.95 1102.14,308.51 1032.00,301.50
             1032.00,301.50 969.00,296.12 969.00,296.12
             886.69,292.81 846.56,296.13 830.06,263.19
             824.82,252.72 824.66,229.75 825.12,218.00
             825.44,209.89 825.81,192.41 828.82,185.00
             847.48,139.10 932.18,150.45 972.82,150.64
             992.17,150.73 1016.10,153.11 1031.18,166.45
             1052.08,184.95 1047.00,207.79 1047.00,233.00
             1047.00,233.00 1188.00,233.00 1188.00,233.00 Z
           M 465.00,41.00
           C 465.00,41.00 243.75,42.50 243.75,42.50
             243.75,42.50 42.00,674.00 42.00,674.00
             42.00,674.00 162.75,674.38 162.75,674.38
             162.75,674.38 254.34,638.19 254.34,638.19
             254.34,638.19 78.00,638.00 78.00,638.00
             78.00,638.00 82.12,622.25 82.12,622.25
             82.12,622.25 291.38,622.34 291.38,622.34
             298.12,619.73 301.70,613.81 305.61,607.94
             321.19,584.54 314.54,561.95 311.16,536.00
             309.81,525.67 308.66,502.45 301.32,495.46
             298.12,492.42 292.41,489.22 292.41,489.22
             292.41,489.22 280.78,502.16 280.78,502.16
             280.78,502.16 289.41,508.44 289.41,508.44
             294.18,519.81 294.87,541.44 297.37,557.75
             298.30,566.41 300.73,578.09 297.37,586.54
             292.78,600.02 284.81,609.69 270.94,614.56
             270.94,614.56 251.62,593.38 251.62,593.38
             251.62,593.38 93.00,593.00 93.00,593.00
             93.00,593.00 97.50,578.00 97.50,578.00
             97.50,578.00 237.00,578.00 237.00,578.00
             237.00,578.00 228.00,545.00 228.00,545.00
             228.00,545.00 111.00,545.00 111.00,545.00
             111.00,545.00 114.00,530.00 114.00,530.00
             114.00,530.00 225.00,530.00 225.00,530.00
             219.87,502.77 206.03,456.90 207.97,431.00
             211.53,383.44 218.02,358.11 237.38,315.12
             242.14,304.54 258.18,276.84 270.94,260.94
             272.81,258.60 273.38,255.69 274.12,252.69
             276.23,248.95 282.00,245.19 285.56,243.88
             291.75,243.12 296.37,246.78 301.88,246.12
             314.44,242.75 322.50,238.25 351.56,246.12
             362.44,248.94 372.00,261.12 372.00,261.12
             372.00,261.12 399.00,265.62 414.94,274.44
             414.00,282.31 411.00,291.50 402.56,301.81
             393.05,307.15 375.52,299.51 364.28,309.95
             355.92,317.72 350.33,344.43 348.00,356.00
             348.00,356.00 364.88,359.56 364.88,359.56
             364.88,359.56 369.94,342.12 369.94,342.12
             426.29,354.98 517.78,390.45 545.25,444.12
             557.05,467.19 555.00,504.39 555.00,530.00
             555.00,530.00 600.00,530.00 600.00,530.00
             600.00,530.00 603.00,545.00 603.00,545.00
             603.00,545.00 553.83,544.87 553.83,544.87
             553.83,544.87 553.23,561.96 550.75,578.00
             550.75,578.00 613.50,578.00 613.50,578.00
             613.50,578.00 618.00,593.00 618.00,593.00
             618.00,593.00 548.48,593.00 548.48,593.00
             548.48,593.00 548.47,593.64 543.38,622.00
             543.38,622.00 628.12,622.00 628.12,622.00
             628.12,622.00 632.00,638.00 632.00,638.00
             632.00,638.00 540.25,638.00 540.25,638.00
             540.25,638.00 538.43,647.91 536.22,655.09
             536.22,655.09 561.52,666.17 579.13,674.39
             579.13,674.39 633.13,674.39 665.22,674.39
             665.22,674.39 465.00,41.00 465.00,41.00 Z
           M 1707.00,41.00
           C 1707.00,41.00 1272.00,41.00 1272.00,41.00
             1272.00,41.00 1272.00,674.38 1272.00,674.38
             1272.00,674.38 1419.00,674.38 1419.00,674.38
             1419.00,674.38 1419.00,431.00 1419.00,431.00
             1419.00,431.00 1689.00,431.00 1689.00,431.00
             1689.00,431.00 1689.00,308.00 1689.00,308.00
             1689.00,308.00 1419.00,308.00 1419.00,308.00
             1419.00,308.00 1419.00,164.00 1419.00,164.00
             1419.00,164.00 1707.00,164.00 1707.00,164.00
             1707.00,164.00 1707.00,41.00 1707.00,41.00 Z
           M 384.00,473.00
           C 384.00,473.00 385.13,507.21 382.72,524.00
             376.51,567.27 370.68,577.57 357.00,617.00
             362.66,616.80 375.75,616.62 375.75,616.62
             389.44,586.44 393.99,565.29 396.00,551.00
             396.00,551.00 431.06,565.62 431.06,565.62
             437.76,578.45 437.25,588.31 437.25,596.56
             434.85,606.71 427.33,612.94 423.00,623.00
             423.00,623.00 460.31,633.69 460.31,633.69
             452.06,598.25 450.19,563.56 444.94,554.56
             444.94,554.56 399.00,533.00 399.00,533.00
             403.50,513.12 401.44,475.06 401.44,475.06
             401.44,475.06 384.00,473.00 384.00,473.00 Z" />
    <path id="White"
        fill="white" stroke="black" stroke-width="1" opacity="0.25"
        d="M 831.94,457.81
           C 831.94,485.26 825.28,521.78 850.50,539.00
             867.16,550.37 903.81,548.00 924.00,548.00
             954.00,548.00 1025.06,556.44 1037.62,530.75
             1043.72,520.67 1045.25,502.56 1045.69,491.00
             1046.19,477.83 1045.11,456.88 1036.69,446.19
             1025.62,426.69 975.94,429.12 960.56,428.56
             960.56,428.56 849.00,422.50 849.00,422.50
             796.33,417.24 736.76,411.45 699.98,367.96
             672.93,335.97 663.49,279.94 663.01,239.00
             662.38,185.41 666.13,114.90 705.52,74.28
             733.05,45.88 775.02,33.90 813.00,28.61
             876.85,19.72 946.23,22.70 1011.00,23.00
             1058.17,23.22 1122.92,34.64 1157.88,68.28
             1208.06,116.53 1203.00,184.67 1203.00,248.00
             1203.00,248.00 1033.69,246.88 1033.69,246.88
             1033.69,223.56 1040.18,192.18 1019.62,176.38
             1006.04,165.92 992.44,164.75 982.88,164.75
             982.88,164.75 918.64,162.11 895.12,164.00
             856.88,168.50 841.18,171.29 840.04,218.00
             839.87,225.27 839.05,236.87 840.75,243.88
             849.70,280.73 881.62,276.88 916.12,279.50
             916.12,279.50 1005.00,284.12 1005.00,284.12
             1005.00,284.12 1029.00,286.74 1029.00,286.74
             1092.96,291.41 1169.32,300.50 1201.87,365.00
             1218.75,405.12 1218.75,430.62 1218.94,470.75
             1218.94,470.75 1218.27,521.00 1218.27,521.00
             1215.27,564.61 1210.56,607.38 1178.48,640.73
             1140.22,680.52 1084.22,688.61 1032.00,692.27
             1032.00,692.27 999.00,695.00 999.00,695.00
             937.88,695.29 876.69,696.72 816.00,689.46
             776.10,684.69 734.47,673.14 705.28,643.73
             658.25,596.34 663.00,519.48 663.00,458.00
             663.00,458.00 831.94,457.81 831.94,457.81 Z
           M 234.75,28.25
           C 234.75,28.25 473.25,27.50 473.25,27.50
             473.25,27.50 687.00,689.00 687.00,689.00
             687.00,689.00 24.00,689.00 24.00,689.00
             24.00,689.00 234.75,28.25 234.75,28.25 Z
           M 1257.00,26.00
           C 1257.00,26.00 1722.00,26.00 1722.00,26.00
             1722.00,26.00 1722.00,176.00 1722.00,176.00
             1722.00,176.00 1434.00,176.00 1434.00,176.00
             1434.00,176.00 1434.00,296.00 1434.00,296.00
             1434.00,296.00 1704.00,296.00 1704.00,296.00
             1704.00,296.00 1704.00,446.00 1704.00,446.00
             1704.00,446.00 1434.00,446.00 1434.00,446.00
             1434.00,446.00 1434.00,689.00 1434.00,689.00
             1434.00,689.00 1257.00,689.00 1257.00,689.00
             1257.00,689.00 1257.00,26.00 1257.00,26.00 Z
           M 1188.00,233.00
           C 1188.00,233.00 1188.56,163.25 1184.44,153.69
             1181.52,140.65 1176.67,121.77 1170.30,110.00
             1140.91,55.67 1078.04,38.69 1020.00,38.01
             1020.00,38.01 861.00,38.00 861.00,38.00
             816.73,38.53 749.83,51.69 717.52,83.55
             676.68,123.81 677.39,194.80 678.01,248.00
             678.42,282.90 688.72,332.05 711.98,358.88
             750.74,403.60 824.33,406.51 879.00,410.26
             879.00,410.26 921.00,413.01 921.00,413.01
             921.00,413.01 954.94,415.06 954.94,415.06
             985.27,416.38 1032.99,411.89 1051.88,440.38
             1061.03,454.18 1060.52,475.90 1060.50,491.75
             1060.48,506.31 1059.48,524.43 1052.44,537.69
             1042.28,556.81 1025.25,560.24 1005.38,563.56
             1005.38,563.56 896.06,564.12 896.06,564.12
             870.68,564.09 841.21,561.53 826.69,537.50
             819.86,526.20 817.66,510.21 817.31,497.19
             817.13,490.20 817.31,472.06 817.31,472.06
             817.31,472.06 677.44,471.88 677.44,471.88
             677.44,527.45 674.31,591.85 717.52,634.45
             744.48,661.04 782.89,670.07 819.00,675.26
             859.91,681.14 900.78,680.00 942.00,680.00
             984.68,680.00 1025.65,681.23 1068.00,674.24
             1103.50,668.38 1140.36,657.95 1166.45,631.48
             1206.66,590.70 1204.75,524.33 1204.12,470.56
             1203.93,454.22 1201.62,410.50 1196.88,395.00
             1172.75,315.95 1102.14,308.51 1032.00,301.50
             1032.00,301.50 969.00,296.12 969.00,296.12
             886.69,292.81 846.56,296.13 830.06,263.19
             824.82,252.72 824.66,229.75 825.12,218.00
             825.44,209.89 825.81,192.41 828.82,185.00
             847.48,139.10 932.18,150.45 972.82,150.64
             992.17,150.73 1016.10,153.11 1031.18,166.45
             1052.08,184.95 1047.00,207.79 1047.00,233.00
             1047.00,233.00 1188.00,233.00 1188.00,233.00 Z
           M 465.00,41.00
           C 465.00,41.00 243.75,42.50 243.75,42.50
             243.75,42.50 42.00,674.00 42.00,674.00
             42.00,674.00 162.75,674.38 162.75,674.38
             162.75,674.38 254.34,638.19 254.34,638.19
             254.34,638.19 78.00,638.00 78.00,638.00
             78.00,638.00 82.12,622.25 82.12,622.25
             82.12,622.25 291.38,622.34 291.38,622.34
             298.12,619.73 301.70,613.81 305.61,607.94
             321.19,584.54 314.54,561.95 311.16,536.00
             309.81,525.67 308.66,502.45 301.32,495.46
             298.12,492.42 292.41,489.22 292.41,489.22
             292.41,489.22 280.78,502.16 280.78,502.16
             280.78,502.16 289.41,508.44 289.41,508.44
             294.18,519.81 294.87,541.44 297.37,557.75
             298.30,566.41 300.73,578.09 297.37,586.54
             292.78,600.02 284.81,609.69 270.94,614.56
             270.94,614.56 251.62,593.38 251.62,593.38
             251.62,593.38 93.00,593.00 93.00,593.00
             93.00,593.00 97.50,578.00 97.50,578.00
             97.50,578.00 237.00,578.00 237.00,578.00
             237.00,578.00 228.00,545.00 228.00,545.00
             228.00,545.00 111.00,545.00 111.00,545.00
             111.00,545.00 114.00,530.00 114.00,530.00
             114.00,530.00 225.00,530.00 225.00,530.00
             219.87,502.77 206.03,456.90 207.97,431.00
             211.53,383.44 218.02,358.11 237.38,315.12
             242.14,304.54 258.18,276.84 270.94,260.94
             272.81,258.60 273.38,255.69 274.12,252.69
             276.23,248.95 282.00,245.19 285.56,243.88
             291.75,243.12 296.37,246.78 301.88,246.12
             314.44,242.75 322.50,238.25 351.56,246.12
             362.44,248.94 372.00,261.12 372.00,261.12
             372.00,261.12 399.00,265.62 414.94,274.44
             414.00,282.31 411.00,291.50 402.56,301.81
             393.05,307.15 375.52,299.51 364.28,309.95
             355.92,317.72 350.33,344.43 348.00,356.00
             348.00,356.00 364.88,359.56 364.88,359.56
             364.88,359.56 369.94,342.12 369.94,342.12
             426.29,354.98 517.78,390.45 545.25,444.12
             557.05,467.19 555.00,504.39 555.00,530.00
             555.00,530.00 600.00,530.00 600.00,530.00
             600.00,530.00 603.00,545.00 603.00,545.00
             603.00,545.00 553.83,544.87 553.83,544.87
             553.83,544.87 553.23,561.96 550.75,578.00
             550.75,578.00 613.50,578.00 613.50,578.00
             613.50,578.00 618.00,593.00 618.00,593.00
             618.00,593.00 548.48,593.00 548.48,593.00
             548.48,593.00 548.47,593.64 543.38,622.00
             543.38,622.00 628.12,622.00 628.12,622.00
             628.12,622.00 632.00,638.00 632.00,638.00
             632.00,638.00 540.25,638.00 540.25,638.00
             540.25,638.00 538.43,647.91 536.22,655.09
             536.22,655.09 561.52,666.17 579.13,674.39
             579.13,674.39 633.13,674.39 665.22,674.39
             665.22,674.39 465.00,41.00 465.00,41.00 Z
           M 1707.00,41.00
           C 1707.00,41.00 1272.00,41.00 1272.00,41.00
             1272.00,41.00 1272.00,674.38 1272.00,674.38
             1272.00,674.38 1419.00,674.38 1419.00,674.38
             1419.00,674.38 1419.00,431.00 1419.00,431.00
             1419.00,431.00 1689.00,431.00 1689.00,431.00
             1689.00,431.00 1689.00,308.00 1689.00,308.00
             1689.00,308.00 1419.00,308.00 1419.00,308.00
             1419.00,308.00 1419.00,164.00 1419.00,164.00
             1419.00,164.00 1707.00,164.00 1707.00,164.00
             1707.00,164.00 1707.00,41.00 1707.00,41.00 Z
           M 384.00,473.00
           C 384.00,473.00 385.13,507.21 382.72,524.00
             376.51,567.27 370.68,577.57 357.00,617.00
             362.66,616.80 375.75,616.62 375.75,616.62
             389.44,586.44 393.99,565.29 396.00,551.00
             396.00,551.00 431.06,565.62 431.06,565.62
             437.76,578.45 437.25,588.31 437.25,596.56
             434.85,606.71 427.33,612.94 423.00,623.00
             423.00,623.00 460.31,633.69 460.31,633.69
             452.06,598.25 450.19,563.56 444.94,554.56
             444.94,554.56 399.00,533.00 399.00,533.00
             403.50,513.12 401.44,475.06 401.44,475.06
             401.44,475.06 384.00,473.00 384.00,473.00 Z
           M 1535.95,0.83" />
  <path id="OpenScienceLab"
        fill="#00558b" stroke="black" stroke-width="1"
        opacity="0.25"
        d="M 1571.00,964.00
           C 1571.00,964.00 1571.00,814.00 1571.00,814.00
             1571.00,814.00 1572.02,806.58 1572.02,806.58
             1572.02,806.58 1579.00,803.87 1579.00,803.87
             1579.00,803.87 1598.00,800.00 1598.00,800.00
             1598.00,800.00 1598.00,852.00 1598.00,852.00
             1602.55,850.07 1606.04,848.36 1611.00,847.23
             1614.75,846.79 1621.92,846.98 1626.00,847.23
             1639.20,847.06 1652.51,852.64 1661.71,862.17
             1674.64,875.55 1677.95,893.14 1676.17,911.00
             1674.23,930.37 1667.74,946.87 1650.00,957.13
             1637.67,964.25 1628.62,964.16 1615.00,964.00
             1603.81,963.86 1600.49,960.47 1591.00,957.00
             1587.27,966.39 1580.62,964.00 1571.00,964.00 Z
           M 78.00,804.22
           C 78.00,804.22 86.00,804.22 86.00,804.22
             105.15,803.97 120.67,804.69 136.00,818.18
             152.68,832.87 157.60,851.74 159.09,873.00
             159.40,877.39 160.16,878.95 159.96,884.00
             158.99,909.09 152.71,935.20 132.00,951.48
             116.28,963.85 99.90,964.22 81.00,964.00
             51.20,963.65 32.61,939.89 26.13,913.00
             15.89,870.51 28.41,813.72 78.00,804.22 Z
           M 565.00,928.00
           C 565.00,928.00 584.00,936.91 584.00,936.91
             590.37,939.20 594.41,939.08 601.00,939.00
             619.13,938.78 627.58,923.43 615.67,909.00
             598.20,887.83 562.50,888.37 556.31,856.00
             555.71,852.84 554.91,847.13 555.09,844.00
             555.33,839.88 556.58,833.85 558.07,830.00
             564.05,814.53 580.63,804.20 597.00,804.00
             597.00,804.00 612.00,804.00 612.00,804.00
             617.08,804.06 623.11,805.05 628.00,806.43
             634.78,808.34 636.98,809.82 643.00,813.00
             643.00,813.00 635.00,838.00 635.00,838.00
             626.67,835.96 620.22,828.17 606.00,828.00
             601.85,827.96 597.82,827.77 594.00,829.69
             584.72,834.35 581.31,844.15 587.11,853.00
             599.05,871.22 629.17,873.54 642.91,895.00
             656.24,915.82 651.00,944.12 629.00,956.66
             615.39,964.42 603.00,964.17 588.00,964.00
             580.09,963.90 571.14,961.58 564.00,958.22
             561.71,957.14 557.24,955.20 556.23,952.79
             555.27,950.50 556.94,947.16 557.80,945.00
             557.80,945.00 565.00,928.00 565.00,928.00 Z
           M 798.00,805.70
           C 804.18,804.30 810.96,804.41 815.61,809.33
             822.92,817.06 820.49,831.74 810.00,835.30
             789.84,842.15 779.01,814.46 798.00,805.70 Z
           M 1338.00,807.00
           C 1338.00,807.00 1367.00,807.00 1367.00,807.00
             1367.00,807.00 1367.00,938.00 1367.00,938.00
             1367.00,938.00 1437.00,938.00 1437.00,938.00
             1437.00,938.00 1437.00,962.00 1437.00,962.00
             1437.00,962.00 1338.00,962.00 1338.00,962.00
             1338.00,962.00 1338.00,807.00 1338.00,807.00 Z
           M 83.00,829.30
           C 60.93,833.62 53.03,856.99 53.00,877.00
             53.00,877.00 53.00,890.00 53.00,890.00
             53.01,897.11 54.05,904.13 55.88,911.00
             59.88,925.94 69.32,938.79 86.00,939.00
             91.69,939.07 96.50,939.31 102.00,937.48
             126.49,929.32 130.03,902.17 130.00,880.00
             129.98,866.15 126.66,846.97 115.91,837.32
             106.50,828.88 94.98,828.10 83.00,829.30 Z
           M 207.00,855.00
           C 211.66,851.44 215.25,849.24 221.00,847.76
             225.29,846.66 232.38,846.98 237.00,847.00
             251.77,847.07 266.40,852.89 275.39,865.00
             281.69,873.48 283.93,883.74 285.15,894.00
             288.04,918.16 283.88,943.90 261.00,957.13
             248.65,964.26 238.68,964.16 225.00,964.00
             217.74,963.91 213.65,962.64 207.00,960.00
             207.00,960.00 207.00,1007.00 207.00,1007.00
             207.00,1007.00 180.00,1007.00 180.00,1007.00
             180.00,1007.00 180.00,849.00 180.00,849.00
             180.00,849.00 207.00,849.00 207.00,849.00
             207.00,849.00 207.00,855.00 207.00,855.00 Z
           M 389.00,933.00
           C 391.15,936.58 399.11,949.08 398.19,952.82
             397.35,956.24 391.01,958.65 388.00,959.77
             375.14,964.58 365.27,964.02 352.00,964.00
             321.78,963.95 303.04,943.19 300.91,914.00
             300.66,910.58 299.93,908.55 300.18,905.00
             300.98,893.72 302.96,882.80 308.93,873.00
             316.96,859.80 331.59,849.50 347.00,847.15
             347.00,847.15 364.00,847.15 364.00,847.15
             384.73,847.25 403.20,861.46 409.64,881.00
             412.03,888.25 412.59,897.41 411.83,905.00
             411.61,907.17 411.04,911.60 409.27,913.01
             407.69,914.26 403.97,914.00 402.00,914.00
             402.00,914.00 329.00,914.00 329.00,914.00
             330.91,927.53 338.88,938.32 353.00,940.84
             353.00,940.84 364.00,940.84 364.00,940.84
             378.51,940.93 379.39,936.67 389.00,933.00 Z
           M 457.00,858.00
           C 460.37,855.31 464.06,852.31 468.00,850.52
             476.83,846.49 483.67,846.96 493.00,847.00
             510.37,847.08 524.42,856.40 530.30,873.00
             532.05,877.94 532.94,882.76 533.00,888.00
             533.00,888.00 533.00,962.00 533.00,962.00
             533.00,962.00 506.00,962.00 506.00,962.00
             506.00,962.00 506.00,910.00 506.00,910.00
             506.00,900.42 506.92,888.71 502.33,880.00
             493.44,863.14 466.92,870.06 461.17,881.04
             459.79,883.68 460.00,887.09 460.00,890.00
             460.00,890.00 460.00,962.00 460.00,962.00
             460.00,962.00 433.00,962.00 433.00,962.00
             433.00,962.00 433.00,849.00 433.00,849.00
             437.34,849.00 450.41,847.94 453.35,850.60
             455.16,852.23 456.21,855.73 457.00,858.00 Z
           M 753.00,932.00
           C 753.00,932.00 759.75,946.00 759.75,946.00
             760.66,947.88 762.30,950.67 761.59,952.79
             760.87,954.94 757.87,956.28 756.00,957.24
             750.33,960.17 746.34,961.96 740.00,963.08
             734.95,963.96 734.08,963.99 729.00,964.00
             709.71,964.03 693.76,964.08 679.09,948.96
             667.69,937.22 665.29,922.60 664.18,907.00
             663.95,903.72 664.50,902.10 664.84,899.00
             666.89,879.78 674.73,864.49 692.00,854.46
             705.43,846.67 729.17,844.59 744.00,848.75
             751.74,850.91 755.21,853.37 762.00,857.00
             760.31,862.35 757.06,867.12 754.30,872.00
             753.31,873.75 752.01,876.72 749.79,877.10
             746.70,877.63 743.92,873.56 737.00,871.44
             725.25,867.84 711.02,869.85 702.46,879.17
             686.29,896.79 688.54,940.83 724.00,941.00
             743.06,941.09 738.98,937.35 753.00,932.00 Z
           M 929.00,933.00
           C 931.15,936.58 939.11,949.08 938.19,952.82
             937.35,956.24 931.01,958.65 928.00,959.77
             915.14,964.58 905.27,964.02 892.00,964.00
             861.78,963.95 843.04,943.19 840.91,914.00
             840.66,910.58 839.93,908.55 840.18,905.00
             840.98,893.72 842.96,882.80 848.93,873.00
             856.96,859.80 871.59,849.50 887.00,847.15
             887.00,847.15 904.00,847.15 904.00,847.15
             924.73,847.25 943.20,861.46 949.64,881.00
             952.03,888.25 952.59,897.41 951.83,905.00
             951.61,907.17 951.04,911.60 949.27,913.01
             947.69,914.26 943.97,914.00 942.00,914.00
             942.00,914.00 869.00,914.00 869.00,914.00
             870.91,927.53 878.88,938.32 893.00,940.84
             893.00,940.84 904.00,940.84 904.00,940.84
             918.51,940.93 919.39,936.67 929.00,933.00 Z
           M 997.00,858.00
           C 1000.37,855.31 1004.06,852.31 1008.00,850.52
             1016.83,846.49 1023.67,846.96 1033.00,847.00
             1050.37,847.08 1064.42,856.40 1070.30,873.00
             1072.05,877.94 1072.94,882.76 1073.00,888.00
             1073.00,888.00 1073.00,962.00 1073.00,962.00
             1073.00,962.00 1046.00,962.00 1046.00,962.00
             1046.00,962.00 1046.00,910.00 1046.00,910.00
             1046.00,900.42 1046.92,888.71 1042.33,880.00
             1033.44,863.14 1006.92,870.06 1001.17,881.04
             999.79,883.68 1000.00,887.09 1000.00,890.00
             1000.00,890.00 1000.00,962.00 1000.00,962.00
             1000.00,962.00 973.00,962.00 973.00,962.00
             973.00,962.00 973.00,849.00 973.00,849.00
             977.34,849.00 990.41,847.94 993.35,850.60
             995.16,852.23 996.21,855.73 997.00,858.00 Z
           M 1182.00,932.00
           C 1182.00,932.00 1188.75,946.00 1188.75,946.00
             1189.66,947.88 1191.30,950.67 1190.59,952.79
             1189.87,954.94 1186.87,956.28 1185.00,957.24
             1179.33,960.17 1175.34,961.96 1169.00,963.08
             1163.95,963.96 1163.08,963.99 1158.00,964.00
             1138.71,964.03 1122.76,964.08 1108.09,948.96
             1096.69,937.22 1094.29,922.60 1093.18,907.00
             1092.95,903.72 1093.50,902.10 1093.84,899.00
             1095.89,879.78 1103.73,864.49 1121.00,854.46
             1134.43,846.67 1158.17,844.59 1173.00,848.75
             1180.74,850.91 1184.21,853.37 1191.00,857.00
             1189.31,862.35 1186.06,867.12 1183.30,872.00
             1182.31,873.75 1181.01,876.72 1178.79,877.10
             1175.70,877.63 1172.92,873.56 1166.00,871.44
             1154.25,867.84 1140.02,869.85 1131.46,879.17
             1115.29,896.79 1117.54,940.83 1153.00,941.00
             1172.06,941.09 1167.98,937.35 1182.00,932.00 Z
           M 1293.00,933.00
           C 1295.15,936.58 1303.11,949.08 1302.19,952.82
             1301.35,956.24 1295.01,958.65 1292.00,959.77
             1279.14,964.58 1269.27,964.02 1256.00,964.00
             1225.78,963.95 1207.04,943.19 1204.91,914.00
             1204.66,910.58 1203.93,908.55 1204.18,905.00
             1204.98,893.72 1206.96,882.80 1212.93,873.00
             1220.96,859.80 1235.59,849.50 1251.00,847.15
             1251.00,847.15 1268.00,847.15 1268.00,847.15
             1288.73,847.25 1307.20,861.46 1313.64,881.00
             1316.03,888.25 1316.59,897.41 1315.83,905.00
             1315.61,907.17 1315.04,911.60 1313.27,913.01
             1311.69,914.26 1307.97,914.00 1306.00,914.00
             1306.00,914.00 1233.00,914.00 1233.00,914.00
             1234.91,927.53 1242.88,938.32 1257.00,940.84
             1257.00,940.84 1268.00,940.84 1268.00,940.84
             1282.51,940.93 1283.39,936.67 1293.00,933.00 Z
           M 1461.00,853.00
           C 1480.14,846.37 1482.00,846.77 1502.00,847.00
             1507.71,847.07 1514.68,848.38 1520.00,850.46
             1525.08,852.45 1530.96,855.87 1534.47,860.09
             1541.21,868.19 1543.27,879.82 1544.08,890.00
             1544.08,890.00 1545.00,932.00 1545.00,932.00
             1545.11,940.76 1547.09,949.13 1554.00,955.00
             1550.98,962.62 1546.74,963.92 1539.00,964.00
             1529.96,964.09 1524.53,961.98 1521.00,953.00
             1506.01,963.49 1503.11,964.08 1485.00,964.00
             1475.93,963.96 1465.81,961.22 1459.09,954.82
             1447.47,943.74 1446.61,921.29 1454.63,908.00
             1463.85,892.72 1483.05,887.03 1500.00,887.00
             1507.12,886.99 1509.81,886.71 1517.00,888.00
             1515.48,871.25 1502.51,869.94 1489.00,870.23
             1486.39,870.01 1484.61,869.99 1482.00,870.23
             1478.57,871.08 1469.72,875.16 1467.56,873.87
             1465.97,872.94 1465.20,869.69 1464.71,868.00
             1464.71,868.00 1461.00,853.00 1461.00,853.00 Z
           M 775.00,849.00
           C 775.00,849.00 818.00,849.00 818.00,849.00
             818.00,849.00 818.00,962.00 818.00,962.00
             818.00,962.00 790.00,962.00 790.00,962.00
             790.00,962.00 790.00,871.00 790.00,871.00
             790.00,871.00 775.00,871.00 775.00,871.00
             775.00,871.00 775.00,849.00 775.00,849.00 Z
           M 218.00,870.39
           C 211.26,872.42 207.13,874.52 207.00,882.00
             207.00,882.00 207.00,928.00 207.00,928.00
             207.00,929.90 206.88,933.10 207.60,934.82
             209.66,939.71 217.30,941.02 222.00,941.25
             230.74,941.68 242.21,940.08 248.68,933.67
             251.79,930.59 254.04,926.19 255.25,922.00
             258.76,909.87 258.54,886.52 248.90,877.18
             241.04,869.57 228.29,869.00 218.00,870.39 Z
           M 385.00,894.00
           C 382.81,885.76 382.28,880.17 374.99,874.39
             366.62,867.76 348.15,868.45 340.04,875.34
             334.30,880.21 331.63,886.86 330.00,894.00
             330.00,894.00 385.00,894.00 385.00,894.00 Z
           M 925.00,894.00
           C 922.81,885.76 922.28,880.17 914.99,874.39
             906.62,867.76 888.15,868.45 880.04,875.34
             874.30,880.21 871.63,886.86 870.00,894.00
             870.00,894.00 925.00,894.00 925.00,894.00 Z
           M 1289.00,894.00
           C 1286.81,885.76 1286.28,880.17 1278.99,874.39
             1270.62,867.76 1252.15,868.45 1244.04,875.34
             1238.30,880.21 1235.63,886.86 1234.00,894.00
             1234.00,894.00 1289.00,894.00 1289.00,894.00 Z
           M 1609.00,870.33
           C 1605.31,871.21 1601.00,872.54 1599.02,876.10
             1597.49,878.87 1598.00,887.51 1598.00,891.00
             1598.00,891.00 1598.00,927.00 1598.00,927.00
             1598.02,937.72 1602.41,940.87 1613.00,941.00
             1622.61,941.11 1631.41,940.92 1638.91,933.81
             1649.03,924.22 1650.36,899.40 1645.53,887.00
             1643.72,882.33 1640.95,878.50 1637.00,875.39
             1629.61,869.59 1617.96,869.33 1609.00,870.33 Z
           M 1517.00,909.00
           C 1507.77,907.35 1494.41,907.02 1486.00,911.65
             1477.90,916.11 1473.59,927.94 1479.65,935.90
             1484.38,942.10 1498.18,942.38 1505.00,939.87
             1508.68,938.52 1511.69,936.23 1513.87,932.96
             1518.21,926.44 1517.00,916.65 1517.00,909.00 Z" />
</svg>
