<?xml version="1.0" encoding="UTF-8" standalone="no"?>
<!DOCTYPE svg PUBLIC "-//W3C//DTD SVG 20010904//EN"
              "http://www.w3.org/TR/2001/REC-SVG-20010904/DTD/svg10.dtd">

<svg xmlns="http://www.w3.org/2000/svg"
     width="618.56mm" height="423.43mm"
     viewBox="0 0 1753 1200">
  <path id="Blue"
        fill="#00558b" stroke="black" stroke-width="1"
        d="M 1188.00,233.00
           C 1188.00,233.00 1188.56,163.25 1184.44,153.69
             1181.52,140.65 1176.67,121.77 1170.30,110.00
             1140.91,55.67 1078.04,38.69 1020.00,38.01
             1020.00,38.01 861.00,38.00 861.00,38.00
             816.73,38.53 749.83,51.69 717.52,83.55
             676.68,123.81 677.39,194.80 678.01,248.00
             678.42,282.90 688.72,332.05 711.98,358.88
             750.74,403.60 824.33,406.51 879.00,410.26
             879.00,410.26 921.00,413.01 921.00,413.01
             921.00,413.01 954.94,415.06 954.94,415.06
             985.27,416.38 1032.99,411.89 1051.88,440.38
             1061.03,454.18 1060.52,475.90 1060.50,491.75
             1060.48,506.31 1059.48,524.43 1052.44,537.69
             1042.28,556.81 1025.25,560.24 1005.38,563.56
             1005.38,563.56 896.06,564.12 896.06,564.12
             870.68,564.09 841.21,561.53 826.69,537.50
             819.86,526.20 817.66,510.21 817.31,497.19
             817.13,490.20 817.31,472.06 817.31,472.06
             817.31,472.06 677.44,471.88 677.44,471.88
             677.44,527.45 674.31,591.85 717.52,634.45
             744.48,661.04 782.89,670.07 819.00,675.26
             859.91,681.14 900.78,680.00 942.00,680.00
             984.68,680.00 1025.65,681.23 1068.00,674.24
             1103.50,668.38 1140.36,657.95 1166.45,631.48
             1206.66,590.70 1204.75,524.33 1204.12,470.56
             1203.93,454.22 1201.62,410.50 1196.88,395.00
             1172.75,315.95 1102.14,308.51 1032.00,301.50
             1032.00,301.50 969.00,296.12 969.00,296.12
             886.69,292.81 846.56,296.13 830.06,263.19
             824.82,252.72 824.66,229.75 825.12,218.00
             825.44,209.89 825.81,192.41 828.82,185.00
             847.48,139.10 932.18,150.45 972.82,150.64
             992.17,150.73 1016.10,153.11 1031.18,166.45
             1052.08,184.95 1047.00,207.79 1047.00,233.00
             1047.00,233.00 1188.00,233.00 1188.00,233.00 Z
           M 465.00,41.00
           C 465.00,41.00 243.75,42.50 243.75,42.50
             243.75,42.50 42.00,674.00 42.00,674.00
             42.00,674.00 162.75,674.38 162.75,674.38
             162.75,674.38 254.34,638.19 254.34,638.19
             254.34,638.19 78.00,638.00 78.00,638.00
             78.00,638.00 82.12,622.25 82.12,622.25
             82.12,622.25 291.38,622.34 291.38,622.34
             298.12,619.73 301.70,613.81 305.61,607.94
             321.19,584.54 314.54,561.95 311.16,536.00
             309.81,525.67 308.66,502.45 301.32,495.46
             298.12,492.42 292.41,489.22 292.41,489.22
             292.41,489.22 280.78,502.16 280.78,502.16
             280.78,502.16 289.41,508.44 289.41,508.44
             294.18,519.81 294.87,541.44 297.37,557.75
             298.30,566.41 300.73,578.09 297.37,586.54
             292.78,600.02 284.81,609.69 270.94,614.56
             270.94,614.56 251.62,593.38 251.62,593.38
             251.62,593.38 93.00,593.00 93.00,593.00
             93.00,593.00 97.50,578.00 97.50,578.00
             97.50,578.00 237.00,578.00 237.00,578.00
             237.00,578.00 228.00,545.00 228.00,545.00
             228.00,545.00 111.00,545.00 111.00,545.00
             111.00,545.00 114.00,530.00 114.00,530.00
             114.00,530.00 225.00,530.00 225.00,530.00
             219.87,502.77 206.03,456.90 207.97,431.00
             211.53,383.44 218.02,358.11 237.38,315.12
             242.14,304.54 258.18,276.84 270.94,260.94
             272.81,258.60 273.38,255.69 274.12,252.69
             276.23,248.95 282.00,245.19 285.56,243.88
             291.75,243.12 296.37,246.78 301.88,246.12
             314.44,242.75 322.50,238.25 351.56,246.12
             362.44,248.94 372.00,261.12 372.00,261.12
             372.00,261.12 399.00,265.62 414.94,274.44
             414.00,282.31 411.00,291.50 402.56,301.81
             393.05,307.15 375.52,299.51 364.28,309.95
             355.92,317.72 350.33,344.43 348.00,356.00
             348.00,356.00 364.88,359.56 364.88,359.56
             364.88,359.56 369.94,342.12 369.94,342.12
             426.29,354.98 517.78,390.45 545.25,444.12
             557.05,467.19 555.00,504.39 555.00,530.00
             555.00,530.00 600.00,530.00 600.00,530.00
             600.00,530.00 603.00,545.00 603.00,545.00
             603.00,545.00 553.83,544.87 553.83,544.87
             553.83,544.87 553.23,561.96 550.75,578.00
             550.75,578.00 613.50,578.00 613.50,578.00
             613.50,578.00 618.00,593.00 618.00,593.00
             618.00,593.00 548.48,593.00 548.48,593.00
             548.48,593.00 548.47,593.64 543.38,622.00
             543.38,622.00 628.12,622.00 628.12,622.00
             628.12,622.00 632.00,638.00 632.00,638.00
             632.00,638.00 540.25,638.00 540.25,638.00
             540.25,638.00 538.43,647.91 536.22,655.09
             536.22,655.09 561.52,666.17 579.13,674.39
             579.13,674.39 633.13,674.39 665.22,674.39
             665.22,674.39 465.00,41.00 465.00,41.00 Z
           M 1707.00,41.00
           C 1707.00,41.00 1272.00,41.00 1272.00,41.00
             1272.00,41.00 1272.00,674.38 1272.00,674.38
             1272.00,674.38 1419.00,674.38 1419.00,674.38
             1419.00,674.38 1419.00,431.00 1419.00,431.00
             1419.00,431.00 1689.00,431.00 1689.00,431.00
             1689.00,431.00 1689.00,308.00 1689.00,308.00
             1689.00,308.00 1419.00,308.00 1419.00,308.00
             1419.00,308.00 1419.00,164.00 1419.00,164.00
             1419.00,164.00 1707.00,164.00 1707.00,164.00
             1707.00,164.00 1707.00,41.00 1707.00,41.00 Z
           M 384.00,473.00
           C 384.00,473.00 385.13,507.21 382.72,524.00
             376.51,567.27 370.68,577.57 357.00,617.00
             362.66,616.80 375.75,616.62 375.75,616.62
             389.44,586.44 393.99,565.29 396.00,551.00
             396.00,551.00 431.06,565.62 431.06,565.62
             437.76,578.45 437.25,588.31 437.25,596.56
             434.85,606.71 427.33,612.94 423.00,623.00
             423.00,623.00 460.31,633.69 460.31,633.69
             452.06,598.25 450.19,563.56 444.94,554.56
             444.94,554.56 399.00,533.00 399.00,533.00
             403.50,513.12 401.44,475.06 401.44,475.06
             401.44,475.06 384.00,473.00 384.00,473.00 Z" />
    <path id="White"
        fill="white" stroke="black" stroke-width="1"
        d="M 831.94,457.81
           C 831.94,485.26 825.28,521.78 850.50,539.00
             867.16,550.37 903.81,548.00 924.00,548.00
             954.00,548.00 1025.06,556.44 1037.62,530.75
             1043.72,520.67 1045.25,502.56 1045.69,491.00
             1046.19,477.83 1045.11,456.88 1036.69,446.19
             1025.62,426.69 975.94,429.12 960.56,428.56
             960.56,428.56 849.00,422.50 849.00,422.50
             796.33,417.24 736.76,411.45 699.98,367.96
             672.93,335.97 663.49,279.94 663.01,239.00
             662.38,185.41 666.13,114.90 705.52,74.28
             733.05,45.88 775.02,33.90 813.00,28.61
             876.85,19.72 946.23,22.70 1011.00,23.00
             1058.17,23.22 1122.92,34.64 1157.88,68.28
             1208.06,116.53 1203.00,184.67 1203.00,248.00
             1203.00,248.00 1033.69,246.88 1033.69,246.88
             1033.69,223.56 1040.18,192.18 1019.62,176.38
             1006.04,165.92 992.44,164.75 982.88,164.75
             982.88,164.75 918.64,162.11 895.12,164.00
             856.88,168.50 841.18,171.29 840.04,218.00
             839.87,225.27 839.05,236.87 840.75,243.88
             849.70,280.73 881.62,276.88 916.12,279.50
             916.12,279.50 1005.00,284.12 1005.00,284.12
             1005.00,284.12 1029.00,286.74 1029.00,286.74
             1092.96,291.41 1169.32,300.50 1201.87,365.00
             1218.75,405.12 1218.75,430.62 1218.94,470.75
             1218.94,470.75 1218.27,521.00 1218.27,521.00
             1215.27,564.61 1210.56,607.38 1178.48,640.73
             1140.22,680.52 1084.22,688.61 1032.00,692.27
             1032.00,692.27 999.00,695.00 999.00,695.00
             937.88,695.29 876.69,696.72 816.00,689.46
             776.10,684.69 734.47,673.14 705.28,643.73
             658.25,596.34 663.00,519.48 663.00,458.00
             663.00,458.00 831.94,457.81 831.94,457.81 Z
           M 234.75,28.25
           C 234.75,28.25 473.25,27.50 473.25,27.50
             473.25,27.50 687.00,689.00 687.00,689.00
             687.00,689.00 24.00,689.00 24.00,689.00
             24.00,689.00 234.75,28.25 234.75,28.25 Z
           M 1257.00,26.00
           C 1257.00,26.00 1722.00,26.00 1722.00,26.00
             1722.00,26.00 1722.00,176.00 1722.00,176.00
             1722.00,176.00 1434.00,176.00 1434.00,176.00
             1434.00,176.00 1434.00,296.00 1434.00,296.00
             1434.00,296.00 1704.00,296.00 1704.00,296.00
             1704.00,296.00 1704.00,446.00 1704.00,446.00
             1704.00,446.00 1434.00,446.00 1434.00,446.00
             1434.00,446.00 1434.00,689.00 1434.00,689.00
             1434.00,689.00 1257.00,689.00 1257.00,689.00
             1257.00,689.00 1257.00,26.00 1257.00,26.00 Z
           M 1188.00,233.00
           C 1188.00,233.00 1188.56,163.25 1184.44,153.69
             1181.52,140.65 1176.67,121.77 1170.30,110.00
             1140.91,55.67 1078.04,38.69 1020.00,38.01
             1020.00,38.01 861.00,38.00 861.00,38.00
             816.73,38.53 749.83,51.69 717.52,83.55
             676.68,123.81 677.39,194.80 678.01,248.00
             678.42,282.90 688.72,332.05 711.98,358.88
             750.74,403.60 824.33,406.51 879.00,410.26
             879.00,410.26 921.00,413.01 921.00,413.01
             921.00,413.01 954.94,415.06 954.94,415.06
             985.27,416.38 1032.99,411.89 1051.88,440.38
             1061.03,454.18 1060.52,475.90 1060.50,491.75
             1060.48,506.31 1059.48,524.43 1052.44,537.69
             1042.28,556.81 1025.25,560.24 1005.38,563.56
             1005.38,563.56 896.06,564.12 896.06,564.12
             870.68,564.09 841.21,561.53 826.69,537.50
             819.86,526.20 817.66,510.21 817.31,497.19
             817.13,490.20 817.31,472.06 817.31,472.06
             817.31,472.06 677.44,471.88 677.44,471.88
             677.44,527.45 674.31,591.85 717.52,634.45
             744.48,661.04 782.89,670.07 819.00,675.26
             859.91,681.14 900.78,680.00 942.00,680.00
             984.68,680.00 1025.65,681.23 1068.00,674.24
             1103.50,668.38 1140.36,657.95 1166.45,631.48
             1206.66,590.70 1204.75,524.33 1204.12,470.56
             1203.93,454.22 1201.62,410.50 1196.88,395.00
             1172.75,315.95 1102.14,308.51 1032.00,301.50
             1032.00,301.50 969.00,296.12 969.00,296.12
             886.69,292.81 846.56,296.13 830.06,263.19
             824.82,252.72 824.66,229.75 825.12,218.00
             825.44,209.89 825.81,192.41 828.82,185.00
             847.48,139.10 932.18,150.45 972.82,150.64
             992.17,150.73 1016.10,153.11 1031.18,166.45
             1052.08,184.95 1047.00,207.79 1047.00,233.00
             1047.00,233.00 1188.00,233.00 1188.00,233.00 Z
           M 465.00,41.00
           C 465.00,41.00 243.75,42.50 243.75,42.50
             243.75,42.50 42.00,674.00 42.00,674.00
             42.00,674.00 162.75,674.38 162.75,674.38
             162.75,674.38 254.34,638.19 254.34,638.19
             254.34,638.19 78.00,638.00 78.00,638.00
             78.00,638.00 82.12,622.25 82.12,622.25
             82.12,622.25 291.38,622.34 291.38,622.34
             298.12,619.73 301.70,613.81 305.61,607.94
             321.19,584.54 314.54,561.95 311.16,536.00
             309.81,525.67 308.66,502.45 301.32,495.46
             298.12,492.42 292.41,489.22 292.41,489.22
             292.41,489.22 280.78,502.16 280.78,502.16
             280.78,502.16 289.41,508.44 289.41,508.44
             294.18,519.81 294.87,541.44 297.37,557.75
             298.30,566.41 300.73,578.09 297.37,586.54
             292.78,600.02 284.81,609.69 270.94,614.56
             270.94,614.56 251.62,593.38 251.62,593.38
             251.62,593.38 93.00,593.00 93.00,593.00
             93.00,593.00 97.50,578.00 97.50,578.00
             97.50,578.00 237.00,578.00 237.00,578.00
             237.00,578.00 228.00,545.00 228.00,545.00
             228.00,545.00 111.00,545.00 111.00,545.00
             111.00,545.00 114.00,530.00 114.00,530.00
             114.00,530.00 225.00,530.00 225.00,530.00
             219.87,502.77 206.03,456.90 207.97,431.00
             211.53,383.44 218.02,358.11 237.38,315.12
             242.14,304.54 258.18,276.84 270.94,260.94
             272.81,258.60 273.38,255.69 274.12,252.69
             276.23,248.95 282.00,245.19 285.56,243.88
             291.75,243.12 296.37,246.78 301.88,246.12
             314.44,242.75 322.50,238.25 351.56,246.12
             362.44,248.94 372.00,261.12 372.00,261.12
             372.00,261.12 399.00,265.62 414.94,274.44
             414.00,282.31 411.00,291.50 402.56,301.81
             393.05,307.15 375.52,299.51 364.28,309.95
             355.92,317.72 350.33,344.43 348.00,356.00
             348.00,356.00 364.88,359.56 364.88,359.56
             364.88,359.56 369.94,342.12 369.94,342.12
             426.29,354.98 517.78,390.45 545.25,444.12
             557.05,467.19 555.00,504.39 555.00,530.00
             555.00,530.00 600.00,530.00 600.00,530.00
             600.00,530.00 603.00,545.00 603.00,545.00
             603.00,545.00 553.83,544.87 553.83,544.87
             553.83,544.87 553.23,561.96 550.75,578.00
             550.75,578.00 613.50,578.00 613.50,578.00
             613.50,578.00 618.00,593.00 618.00,593.00
             618.00,593.00 548.48,593.00 548.48,593.00
             548.48,593.00 548.47,593.64 543.38,622.00
             543.38,622.00 628.12,622.00 628.12,622.00
             628.12,622.00 632.00,638.00 632.00,638.00
             632.00,638.00 540.25,638.00 540.25,638.00
             540.25,638.00 538.43,647.91 536.22,655.09
             536.22,655.09 561.52,666.17 579.13,674.39
             579.13,674.39 633.13,674.39 665.22,674.39
             665.22,674.39 465.00,41.00 465.00,41.00 Z
           M 1707.00,41.00
           C 1707.00,41.00 1272.00,41.00 1272.00,41.00
             1272.00,41.00 1272.00,674.38 1272.00,674.38
             1272.00,674.38 1419.00,674.38 1419.00,674.38
             1419.00,674.38 1419.00,431.00 1419.00,431.00
             1419.00,431.00 1689.00,431.00 1689.00,431.00
             1689.00,431.00 1689.00,308.00 1689.00,308.00
             1689.00,308.00 1419.00,308.00 1419.00,308.00
             1419.00,308.00 1419.00,164.00 1419.00,164.00
             1419.00,164.00 1707.00,164.00 1707.00,164.00
             1707.00,164.00 1707.00,41.00 1707.00,41.00 Z
           M 384.00,473.00
           C 384.00,473.00 385.13,507.21 382.72,524.00
             376.51,567.27 370.68,577.57 357.00,617.00
             362.66,616.80 375.75,616.62 375.75,616.62
             389.44,586.44 393.99,565.29 396.00,551.00
             396.00,551.00 431.06,565.62 431.06,565.62
             437.76,578.45 437.25,588.31 437.25,596.56
             434.85,606.71 427.33,612.94 423.00,623.00
             423.00,623.00 460.31,633.69 460.31,633.69
             452.06,598.25 450.19,563.56 444.94,554.56
             444.94,554.56 399.00,533.00 399.00,533.00
             403.50,513.12 401.44,475.06 401.44,475.06
             401.44,475.06 384.00,473.00 384.00,473.00 Z
           M 1535.95,0.83" />
  <path id="OpenSARLab"
        fill="#00558b" stroke="black" stroke-width="1"
        d="M 48.14,878.34
           C 48.14,849.44 56.09,824.99 72.00,805.00
             87.91,785.00 109.19,775.00 135.81,775.00
             165.12,775.00 187.52,784.05 203.02,802.16
             218.52,820.25 226.27,845.65 226.27,878.34
             226.27,911.03 218.17,936.98 201.98,956.19
             185.80,975.40 162.81,985.00 133.03,985.00
             105.66,985.00 84.66,975.49 70.05,956.47
             55.44,937.44 48.14,911.40 48.14,878.34 Z
           M 85.70,878.34
           C 85.70,902.07 89.74,920.45 97.81,933.47
             105.88,946.49 117.62,953.00 133.02,953.00
             151.11,953.00 164.91,946.63 174.42,933.89
             183.93,921.14 188.69,902.62 188.69,878.34
             188.69,830.78 171.05,807.00 135.80,807.00
             119.66,807.00 107.27,813.45 98.64,826.33
             90.02,839.20 85.70,856.54 85.70,878.34 Z
           M 287.80,978.47
           C 287.80,978.47 287.80,1040.00 287.80,1040.00
             287.80,1040.00 253.00,1040.00 253.00,1040.00
             253.00,1040.00 253.00,833.00 253.00,833.00
             253.00,833.00 287.80,833.00 287.80,833.00
             287.80,833.00 287.80,843.03 287.80,843.03
             296.52,834.34 307.23,830.00 319.94,830.00
             367.44,830.00 391.19,856.23 391.19,908.69
             391.19,933.15 384.62,951.98 371.50,965.19
             358.38,978.40 340.45,985.00 317.72,985.00
             306.77,985.00 296.80,982.82 287.80,978.47 Z
           M 287.80,869.77
           C 287.80,869.77 287.80,948.33 287.80,948.33
             294.11,953.45 301.48,956.00 309.92,956.00
             325.97,956.00 337.50,952.17 344.50,944.50
             351.51,936.82 355.02,924.70 355.02,908.14
             355.02,890.46 351.54,878.02 344.58,870.81
             337.62,863.61 326.11,860.00 310.06,860.00
             301.71,860.00 294.29,863.26 287.80,869.77 Z
           M 554.83,918.00
           C 554.83,918.00 448.36,918.00 448.36,918.00
             449.00,930.01 453.08,939.35 460.59,946.02
             468.11,952.67 478.23,956.00 490.94,956.00
             506.80,956.00 518.86,951.67 527.12,943.00
             527.12,943.00 540.62,970.00 540.62,970.00
             528.38,980.00 510.10,985.00 485.80,985.00
             463.07,985.00 445.09,978.33 431.88,964.98
             418.66,951.63 412.05,933.01 412.05,909.11
             412.05,885.58 419.30,866.51 433.83,851.91
             448.35,837.30 465.77,830.00 486.08,830.00
             507.69,830.00 525.04,836.45 538.12,849.36
             551.21,862.26 557.75,878.68 557.75,898.64
             557.75,902.91 556.77,909.37 554.83,918.00 Z
           M 449.62,892.00
           C 449.62,892.00 522.81,892.00 522.81,892.00
             520.39,870.00 508.34,859.00 486.64,859.00
             466.79,859.00 454.45,870.00 449.62,892.00 Z
           M 681.67,982.00
           C 681.67,982.00 681.67,895.67 681.67,895.67
             681.67,882.95 679.23,873.65 674.36,867.80
             669.49,861.93 661.54,859.00 650.50,859.00
             645.39,859.00 639.94,860.45 634.14,863.33
             628.35,866.20 623.83,869.78 620.58,874.06
             620.58,874.06 620.58,982.00 620.58,982.00
             620.58,982.00 585.78,982.00 585.78,982.00
             585.78,982.00 585.78,833.00 585.78,833.00
             585.78,833.00 610.83,833.00 610.83,833.00
             610.83,833.00 617.23,846.92 617.23,846.92
             626.69,835.64 640.66,830.00 659.12,830.00
             676.84,830.00 690.83,835.32 701.08,845.95
             711.33,856.59 716.45,871.43 716.45,890.47
             716.45,890.47 716.45,982.00 716.45,982.00
             716.45,982.00 681.67,982.00 681.67,982.00 Z
           M 746.14,970.30
           C 746.14,970.30 759.50,938.00 759.50,938.00
             773.79,948.00 787.85,953.00 801.67,953.00
             822.91,953.00 833.53,945.62 833.53,930.88
             833.53,923.96 831.02,917.37 826.02,911.09
             821.00,904.82 810.68,897.80 795.05,890.02
             779.41,882.23 768.88,875.81 763.45,870.77
             758.02,865.71 753.85,859.72 750.92,852.78
             748.00,845.84 746.55,838.15 746.55,829.72
             746.55,813.98 752.32,800.93 763.88,790.56
             775.43,780.19 790.25,775.00 808.34,775.00
             831.91,775.00 849.21,779.37 860.25,788.11
             860.25,788.11 849.25,819.00 849.25,819.00
             836.54,810.34 823.13,806.00 809.03,806.00
             800.69,806.00 794.22,808.20 789.62,812.58
             785.03,816.95 782.73,822.64 782.73,829.64
             782.73,841.26 795.68,853.34 821.56,865.88
             835.20,872.52 845.02,878.64 851.05,884.22
             857.08,889.79 861.67,896.29 864.83,903.72
             867.98,911.15 869.56,919.42 869.56,928.55
             869.56,944.96 863.05,958.48 850.02,969.09
             836.98,979.70 819.52,985.00 797.62,985.00
             778.60,985.00 761.44,980.10 746.14,970.30 Z
           M 1020.86,982.00
           C 1020.86,982.00 1005.97,941.00 1005.97,941.00
             1005.97,941.00 936.11,941.00 936.11,941.00
             936.11,941.00 921.91,982.00 921.91,982.00
             921.91,982.00 881.70,982.00 881.70,982.00
             881.70,982.00 962.97,775.00 962.97,775.00
             962.97,775.00 978.83,775.00 978.83,775.00
             978.83,775.00 1060.80,982.00 1060.80,982.00
             1060.80,982.00 1020.86,982.00 1020.86,982.00 Z
           M 970.89,837.00
           C 970.89,837.00 946.41,913.00 946.41,913.00
             946.41,913.00 995.39,913.00 995.39,913.00
             995.39,913.00 970.89,837.00 970.89,837.00 Z
           M 1196.83,982.00
           C 1196.83,982.00 1142.41,897.00 1142.41,897.00
             1136.94,896.91 1129.29,896.58 1119.45,896.02
             1119.45,896.02 1119.45,982.00 1119.45,982.00
             1119.45,982.00 1081.88,982.00 1081.88,982.00
             1081.88,982.00 1081.88,778.08 1081.88,778.08
             1083.91,778.08 1091.75,777.73 1105.39,777.05
             1119.02,776.35 1130.02,776.00 1138.38,776.00
             1190.14,776.00 1216.03,795.91 1216.03,835.72
             1216.03,847.70 1212.46,858.62 1205.31,868.48
             1198.16,878.34 1189.16,885.29 1178.31,889.34
             1178.31,889.34 1238.56,982.00 1238.56,982.00
             1238.56,982.00 1196.83,982.00 1196.83,982.00 Z
           M 1119.45,808.83
           C 1119.45,808.83 1119.45,865.17 1119.45,865.17
             1126.13,865.73 1131.23,866.00 1134.77,866.00
             1149.88,866.00 1160.94,863.88 1167.94,859.64
             1174.95,855.39 1178.45,847.13 1178.45,834.86
             1178.45,824.89 1174.69,817.92 1167.17,813.95
             1159.66,809.98 1147.84,808.00 1131.70,808.00
             1127.80,808.00 1123.72,808.28 1119.45,808.83 Z
           M 1255.88,982.00
           C 1255.88,982.00 1255.88,778.00 1255.88,778.00
             1255.88,778.00 1292.06,778.00 1292.06,778.00
             1292.06,778.00 1292.06,950.00 1292.06,950.00
             1292.06,950.00 1384.19,950.00 1384.19,950.00
             1384.19,950.00 1384.19,982.00 1384.19,982.00
             1384.19,982.00 1255.88,982.00 1255.88,982.00 Z
           M 1494.72,966.78
           C 1491.56,972.14 1486.06,976.51 1478.22,979.91
             1470.38,983.30 1462.20,985.00 1453.67,985.00
             1437.62,985.00 1425.00,980.96 1415.81,972.89
             1406.63,964.81 1402.05,953.34 1402.05,938.48
             1402.05,921.11 1408.52,907.52 1421.45,897.72
             1434.40,887.91 1452.80,883.00 1476.64,883.00
             1480.72,883.00 1485.55,883.67 1491.11,885.00
             1491.11,867.67 1480.02,859.00 1457.86,859.00
             1444.77,859.00 1433.83,861.34 1425.02,866.00
             1425.02,866.00 1417.50,839.00 1417.50,839.00
             1429.47,833.00 1443.71,830.00 1460.22,830.00
             1482.95,830.00 1499.60,835.19 1510.17,845.56
             1520.74,855.93 1526.03,875.58 1526.03,904.52
             1526.03,904.52 1526.03,936.47 1526.03,936.47
             1526.03,956.38 1530.02,968.89 1538.00,974.00
             1535.12,979.01 1531.92,982.09 1528.39,983.25
             1524.87,984.41 1520.84,985.00 1516.30,985.00
             1511.29,985.00 1506.79,983.09 1502.80,979.27
             1498.80,975.45 1496.11,971.28 1494.72,966.78 Z
           M 1491.39,911.00
           C 1485.45,910.34 1481.00,910.00 1478.03,910.00
             1450.56,910.00 1436.83,918.99 1436.83,936.97
             1436.83,950.32 1444.58,957.00 1460.08,957.00
             1480.95,957.00 1491.39,946.39 1491.39,925.16
             1491.39,925.16 1491.39,911.00 1491.39,911.00 Z
           M 1588.42,974.02
           C 1588.42,974.02 1580.62,985.00 1580.62,985.00
             1580.62,985.00 1561.00,985.00 1561.00,985.00
             1561.00,985.00 1561.00,777.36 1561.00,777.36
             1561.00,777.36 1595.80,769.00 1595.80,769.00
             1595.80,769.00 1595.80,838.50 1595.80,838.50
             1605.08,832.84 1615.19,830.00 1626.12,830.00
             1647.93,830.00 1665.50,836.91 1678.86,850.72
             1692.22,864.53 1698.91,882.23 1698.91,903.80
             1698.91,928.82 1692.18,948.61 1678.72,963.17
             1665.27,977.73 1647.04,985.00 1624.03,985.00
             1610.21,985.00 1598.34,981.34 1588.42,974.02 Z
           M 1595.80,868.72
           C 1595.80,868.72 1595.80,946.02 1595.80,946.02
             1600.90,952.01 1607.81,955.00 1616.53,955.00
             1633.32,955.00 1645.22,951.04 1652.22,943.11
             1659.23,935.18 1662.73,922.51 1662.73,905.08
             1662.73,875.03 1648.26,860.00 1619.31,860.00
             1609.02,860.00 1601.18,862.91 1595.80,868.72 Z" />
</svg>
