<?xml version="1.0" encoding="UTF-8" standalone="yes"?>
<!DOCTYPE svg PUBLIC "-//W3C//DTD SVG 1.1//EN" "http://www.w3.org/Graphics/SVG/1.1/DTD/svg11.dtd">

<svg width="800" height="200" viewBox="0 0 800 200" xmlns="http://www.w3.org/2000/svg" xmlns:xlink="http://www.w3.org/1999/xlink" version="1.1" baseProfile="full">
    <g transform="scale(1.000000,-1.000000) translate(0,-200)">
        <path d="M 1.000000 1.000000 L 801.000000 1.000000 L 801.000000 201.000000 L 1.000000 201.000000 Z" transform="scale(1.000000,1.000000) translate(-1.000000,-1.000000)" fill="#f8f8f8" opacity="1.000000"></path>
        <path d="M 38.506866 76.013733 L 76.013733 38.506866 L 38.506866 1.000000 L 1.000000 38.506866 Z" transform="scale(1.000000,1.000000) translate(44.340942,61.493134)" fill="#1d558e" opacity="1.000000"></path>
        <path d="M 38.506866 76.013733 L 76.013733 38.506866 L 38.506866 1.000000 L 1.000000 38.506866 Z" transform="scale(1.000000,1.000000) translate(84.973373,102.125565)" fill="#474746" opacity="1.000000"></path>
        <path d="M 38.506866 76.013733 L 76.013733 38.506866 L 38.506866 1.000000 L 1.000000 38.506866 Z" transform="scale(1.000000,1.000000) translate(84.973373,20.860699)" fill="#474746" opacity="1.000000"></path>
        <path d="M 38.506866 76.013733 L 76.013733 38.506866 L 38.506866 1.000000 L 1.000000 38.506866 Z" transform="scale(1.000000,1.000000) translate(125.605812,61.493134)" fill="#474746" opacity="1.000000"></path>
        <path d="M 1.000000 35.824024 Q 1.000000 42.739433 3.068448 47.432032 Q 4.612066 50.889737 7.282526 53.637377 Q 9.952985 56.385017 13.132838 57.712529 Q 17.362352 59.503125 22.888504 59.503125 Q 32.891150 59.503125 38.895824 53.297781 Q 44.900498 47.092436 44.900498 36.040131 Q 44.900498 25.080442 38.942133 18.890534 Q 32.983767 12.700625 23.011994 12.700625 Q 12.916732 12.700625 6.958366 18.859661 Q 1.000000 25.018697 1.000000 35.824024 Z M 10.416070 36.132748 Q 10.416070 28.445530 13.966392 24.478431 Q 17.516714 20.511333 22.981122 20.511333 Q 28.445530 20.511333 31.949543 24.447559 Q 35.453556 28.383785 35.453556 36.256237 Q 35.453556 44.036072 32.042160 47.864245 Q 28.630764 51.692418 22.981122 51.692418 Q 17.331479 51.692418 13.873775 47.817937 Q 10.416070 43.943455 10.416070 36.132748 Z M 52.711206 46.258882 L 60.799765 46.258882 L 60.799765 41.442794 Q 62.374255 43.912583 65.060151 45.456201 Q 67.746046 46.999819 71.018516 46.999819 Q 76.729903 46.999819 80.712438 42.523327 Q 84.694973 38.046834 84.694973 30.050892 Q 84.694973 21.838844 80.681566 17.285171 Q 76.668159 12.731497 70.956772 12.731497 Q 68.240004 12.731497 66.032630 13.812030 Q 63.825256 14.892563 61.386340 17.516714 L 61.386340 1.000000 L 52.711206 1.000000 Z M 61.293722 30.421361 Q 61.293722 24.895208 63.485660 22.255621 Q 65.677598 19.616034 68.826579 19.616034 Q 71.852070 19.616034 73.858774 22.039515 Q 75.865477 24.462995 75.865477 29.989148 Q 75.865477 35.144832 73.797029 37.645493 Q 71.728581 40.146155 68.672217 40.146155 Q 65.492364 40.146155 63.393043 37.691802 Q 61.293722 35.237449 61.293722 30.421361 Z M 111.553927 23.907292 L 120.198189 22.456291 Q 118.531081 17.701948 114.934451 15.216723 Q 111.337821 12.731497 105.935158 12.731497 Q 97.383513 12.731497 93.277489 18.319395 Q 90.035891 22.795887 90.035891 29.618679 Q 90.035891 37.768983 94.296277 42.384401 Q 98.556663 46.999819 105.070731 46.999819 Q 112.387481 46.999819 116.616995 42.168294 Q 120.846508 37.336770 120.661274 27.364997 L 98.927131 27.364997 Q 99.019749 23.505952 101.026452 21.360323 Q 103.033156 19.214693 106.027775 19.214693 Q 108.065350 19.214693 109.454607 20.326098 Q 110.843863 21.437503 111.553927 23.907292 Z M 112.047885 32.675043 Q 111.955268 36.441471 110.102926 38.401866 Q 108.250585 40.362261 105.595562 40.362261 Q 102.755304 40.362261 100.902963 38.293813 Q 99.050621 36.225365 99.081493 32.675043 Z M 158.541662 13.472434 L 149.866528 13.472434 L 149.866528 30.205254 Q 149.866528 35.515300 149.310826 37.074355 Q 148.755123 38.633409 147.504793 39.497835 Q 146.254462 40.362261 144.494737 40.362261 Q 142.241055 40.362261 140.450458 39.127367 Q 138.659861 37.892472 137.996105 35.854896 Q 137.332349 33.817321 137.332349 28.322040 L 137.332349 13.472434 L 128.657216 13.472434 L 128.657216 46.258882 L 136.714902 46.258882 L 136.714902 41.442794 Q 141.006160 46.999819 147.520229 46.999819 Q 150.391358 46.999819 152.768530 45.965595 Q 155.145702 44.931371 156.365160 43.326008 Q 157.584619 41.720645 158.063140 39.683069 Q 158.541662 37.645493 158.541662 33.848193 Z M 166.074518 28.198551 L 174.965758 29.062977 Q 175.768440 24.586484 178.222793 22.487164 Q 180.677145 20.387843 184.844914 20.387843 Q 189.259662 20.387843 191.497908 22.255621 Q 193.736154 24.123399 193.736154 26.624060 Q 193.736154 28.229423 192.794547 29.356264 Q 191.852940 30.483105 189.506641 31.316659 Q 187.901278 31.872362 182.189891 33.292490 Q 174.842269 35.113960 171.878522 37.768983 Q 167.710753 41.504539 167.710753 46.876330 Q 167.710753 50.334034 169.671148 53.344089 Q 171.631543 56.354145 175.320791 57.928635 Q 179.010038 59.503125 184.227467 59.503125 Q 192.748239 59.503125 197.054933 55.767570 Q 201.361628 52.032014 201.577734 45.795797 L 192.439515 45.394456 Q 191.852940 48.883033 189.923418 50.411215 Q 187.993895 51.939397 184.134850 51.939397 Q 180.152315 51.939397 177.898633 50.303162 Q 176.447632 49.253501 176.447632 47.493777 Q 176.447632 45.888414 177.806016 44.746137 Q 179.534868 43.295136 186.203298 41.720645 Q 192.871728 40.146155 196.067018 38.463611 Q 199.262307 36.781067 201.068340 33.863629 Q 202.874373 30.946191 202.874373 26.654933 Q 202.874373 22.765015 200.713308 19.369055 Q 198.552243 15.973095 194.600580 14.321424 Q 190.648918 12.669753 184.752297 12.669753 Q 176.169780 12.669753 171.569799 16.636851 Q 166.969817 20.603950 166.074518 28.198551 Z M 240.075569 36.564961 L 231.523925 35.021343 Q 231.091712 37.583749 229.563530 38.880388 Q 228.035348 40.177027 225.596432 40.177027 Q 222.354834 40.177027 220.425311 37.938781 Q 218.495788 35.700535 218.495788 30.452233 Q 218.495788 24.617357 220.456183 22.209313 Q 222.416578 19.801268 225.719921 19.801268 Q 228.189710 19.801268 229.764200 21.205961 Q 231.338691 22.610653 231.987010 26.037485 L 240.507782 24.586484 Q 239.180271 18.720736 235.413843 15.726117 Q 231.647415 12.731497 225.318580 12.731497 Q 218.125320 12.731497 213.849498 17.269735 Q 209.573676 21.807972 209.573676 29.834786 Q 209.573676 37.954217 213.864934 42.477018 Q 218.156192 46.999819 225.472942 46.999819 Q 231.462180 46.999819 234.997066 44.421977 Q 238.531951 41.844135 240.075569 36.564961 Z M 247.639298 50.704502 L 247.639298 58.731316 L 256.314432 58.731316 L 256.314432 50.704502 Z M 247.639298 13.472434 L 247.639298 46.258882 L 256.314432 46.258882 L 256.314432 13.472434 Z M 285.180090 23.907292 L 293.824351 22.456291 Q 292.157244 17.701948 288.560613 15.216723 Q 284.963983 12.731497 279.561320 12.731497 Q 271.009676 12.731497 266.903652 18.319395 Q 263.662054 22.795887 263.662054 29.618679 Q 263.662054 37.768983 267.922440 42.384401 Q 272.182825 46.999819 278.696894 46.999819 Q 286.013644 46.999819 290.243157 42.168294 Q 294.472671 37.336770 294.287436 27.364997 L 272.553294 27.364997 Q 272.645911 23.505952 274.652614 21.360323 Q 276.659318 19.214693 279.653937 19.214693 Q 281.691513 19.214693 283.080769 20.326098 Q 284.470025 21.437503 285.180090 23.907292 Z M 285.674048 32.675043 Q 285.581430 36.441471 283.729089 38.401866 Q 281.876747 40.362261 279.221724 40.362261 Q 276.381467 40.362261 274.529125 38.293813 Q 272.676783 36.225365 272.707656 32.675043 Z M 332.167824 13.472434 L 323.492691 13.472434 L 323.492691 30.205254 Q 323.492691 35.515300 322.936988 37.074355 Q 322.381286 38.633409 321.130955 39.497835 Q 319.880624 40.362261 318.120900 40.362261 Q 315.867217 40.362261 314.076620 39.127367 Q 312.286023 37.892472 311.622268 35.854896 Q 310.958512 33.817321 310.958512 28.322040 L 310.958512 13.472434 L 302.283378 13.472434 L 302.283378 46.258882 L 310.341065 46.258882 L 310.341065 41.442794 Q 314.632323 46.999819 321.146391 46.999819 Q 324.017521 46.999819 326.394693 45.965595 Q 328.771865 44.931371 329.991323 43.326008 Q 331.210781 41.720645 331.689303 39.683069 Q 332.167824 37.645493 332.167824 33.848193 Z M 370.542170 36.564961 L 361.990526 35.021343 Q 361.558313 37.583749 360.030131 38.880388 Q 358.501949 40.177027 356.063032 40.177027 Q 352.821434 40.177027 350.891912 37.938781 Q 348.962389 35.700535 348.962389 30.452233 Q 348.962389 24.617357 350.922784 22.209313 Q 352.883179 19.801268 356.186522 19.801268 Q 358.656311 19.801268 360.230801 21.205961 Q 361.805292 22.610653 362.453611 26.037485 L 370.974383 24.586484 Q 369.646871 18.720736 365.880443 15.726117 Q 362.114015 12.731497 355.785181 12.731497 Q 348.591921 12.731497 344.316099 17.269735 Q 340.040277 21.807972 340.040277 29.834786 Q 340.040277 37.954217 344.331535 42.477018 Q 348.622793 46.999819 355.939543 46.999819 Q 361.928781 46.999819 365.463666 44.421977 Q 368.998552 41.844135 370.542170 36.564961 Z M 397.092401 23.907292 L 405.736662 22.456291 Q 404.069555 17.701948 400.472925 15.216723 Q 396.876295 12.731497 391.473631 12.731497 Q 382.921987 12.731497 378.815963 18.319395 Q 375.574365 22.795887 375.574365 29.618679 Q 375.574365 37.768983 379.834751 42.384401 Q 384.095137 46.999819 390.609205 46.999819 Q 397.925955 46.999819 402.155468 42.168294 Q 406.384982 37.336770 406.199748 27.364997 L 384.465605 27.364997 Q 384.558222 23.505952 386.564926 21.360323 Q 388.571629 19.214693 391.566248 19.214693 Q 393.603824 19.214693 394.993080 20.326098 Q 396.382337 21.437503 397.092401 23.907292 Z M 397.586359 32.675043 Q 397.493742 36.441471 395.641400 38.401866 Q 393.789058 40.362261 391.134035 40.362261 Q 388.293778 40.362261 386.441436 38.293813 Q 384.589095 36.225365 384.619967 32.675043 Z M 414.566158 13.472434 L 414.566158 58.360848 L 423.704377 58.360848 L 423.704377 21.097907 L 446.426435 21.097907 L 446.426435 13.472434 Z M 460.349870 36.256237 L 452.477418 37.676366 Q 453.804930 42.430709 457.046528 44.715264 Q 460.288126 46.999819 466.678704 46.999819 Q 472.482708 46.999819 475.322966 45.625999 Q 478.163223 44.252179 479.320937 42.137422 Q 480.478650 40.022665 480.478650 34.373023 L 480.386033 24.246888 Q 480.386033 19.924758 480.802810 17.871746 Q 481.219587 15.818734 482.361864 13.472434 L 473.779348 13.472434 Q 473.439752 14.336860 472.945794 16.034840 Q 472.729687 16.806649 472.637070 17.053628 Q 470.414260 14.892563 467.882727 13.812030 Q 465.351193 12.731497 462.480063 12.731497 Q 457.416996 12.731497 454.499558 15.479138 Q 451.582120 18.226778 451.582120 22.425419 Q 451.582120 25.203932 452.909631 27.380433 Q 454.237143 29.556935 456.629751 30.714648 Q 459.022359 31.872362 463.529724 32.736788 Q 469.611579 33.879065 471.957878 34.866981 L 471.957878 35.731407 Q 471.957878 38.232068 470.722984 39.297165 Q 469.488089 40.362261 466.061257 40.362261 Q 463.745830 40.362261 462.449191 39.451527 Q 461.152552 38.540792 460.349870 36.256237 Z M 471.957878 29.217339 Q 470.290771 28.661636 466.678704 27.889827 Q 463.066638 27.118018 461.955233 26.377081 Q 460.257253 25.173059 460.257253 23.320718 Q 460.257253 21.499248 461.615637 20.171737 Q 462.974021 18.844225 465.073342 18.844225 Q 467.419641 18.844225 469.549834 20.387843 Q 471.124324 21.560993 471.618282 23.258973 Q 471.957878 24.370378 471.957878 27.488486 Z M 489.647742 13.472434 L 489.647742 58.731316 L 498.322875 58.731316 L 498.322875 42.430709 Q 502.336282 46.999819 507.831563 46.999819 Q 513.820801 46.999819 517.741591 42.662252 Q 521.662381 38.324685 521.662381 30.205254 Q 521.662381 21.807972 517.664410 17.269735 Q 513.666439 12.731497 507.955052 12.731497 Q 505.145667 12.731497 502.413463 14.136190 Q 499.681259 15.540882 497.705428 18.288523 L 497.705428 13.472434 Z M 498.261130 30.575723 Q 498.261130 25.481783 499.866493 23.042866 Q 502.120176 19.585162 505.855731 19.585162 Q 508.726861 19.585162 510.749001 22.039515 Q 512.771140 24.493867 512.771140 29.773041 Q 512.771140 35.391811 510.733565 37.877036 Q 508.695989 40.362261 505.516135 40.362261 Q 502.398027 40.362261 500.329579 37.938781 Q 498.261130 35.515300 498.261130 30.575723 Z" transform="scale(1.000000,1.000000) translate(232.996691,66.622873)" fill="#1d558e" opacity="1.000000"></path>
        <path d="M 1.000000 46.258882 L 9.088559 46.258882 L 9.088559 41.442794 Q 10.663049 43.912583 13.348945 45.456201 Q 16.034840 46.999819 19.307311 46.999819 Q 25.018697 46.999819 29.001232 42.523327 Q 32.983767 38.046834 32.983767 30.050892 Q 32.983767 21.838844 28.970360 17.285171 Q 24.956953 12.731497 19.245566 12.731497 Q 16.528798 12.731497 14.321424 13.812030 Q 12.114050 14.892563 9.675134 17.516714 L 9.675134 1.000000 L 1.000000 1.000000 Z M 9.582517 30.421361 Q 9.582517 24.895208 11.774454 22.255621 Q 13.966392 19.616034 17.115373 19.616034 Q 20.140864 19.616034 22.147568 22.039515 Q 24.154271 24.462995 24.154271 29.989148 Q 24.154271 35.144832 22.085823 37.645493 Q 20.017375 40.146155 16.961011 40.146155 Q 13.781158 40.146155 11.681837 37.691802 Q 9.582517 35.237449 9.582517 30.421361 Z M 59.842721 23.907292 L 68.486983 22.456291 Q 66.819875 17.701948 63.223245 15.216723 Q 59.626615 12.731497 54.223952 12.731497 Q 45.672307 12.731497 41.566283 18.319395 Q 38.324685 22.795887 38.324685 29.618679 Q 38.324685 37.768983 42.585071 42.384401 Q 46.845457 46.999819 53.359526 46.999819 Q 60.676275 46.999819 64.905789 42.168294 Q 69.135302 37.336770 68.950068 27.364997 L 47.215926 27.364997 Q 47.308543 23.505952 49.315246 21.360323 Q 51.321950 19.214693 54.316569 19.214693 Q 56.354145 19.214693 57.743401 20.326098 Q 59.132657 21.437503 59.842721 23.907292 Z M 60.336679 32.675043 Q 60.244062 36.441471 58.391720 38.401866 Q 56.539379 40.362261 53.884356 40.362261 Q 51.044098 40.362261 49.191757 38.293813 Q 47.339415 36.225365 47.370287 32.675043 Z M 106.830456 13.472434 L 98.155322 13.472434 L 98.155322 30.205254 Q 98.155322 35.515300 97.599620 37.074355 Q 97.043917 38.633409 95.793587 39.497835 Q 94.543256 40.362261 92.783531 40.362261 Q 90.529849 40.362261 88.739252 39.127367 Q 86.948655 37.892472 86.284899 35.854896 Q 85.621144 33.817321 85.621144 28.322040 L 85.621144 13.472434 L 76.946010 13.472434 L 76.946010 46.258882 L 85.003696 46.258882 L 85.003696 41.442794 Q 89.294955 46.999819 95.809023 46.999819 Q 98.680153 46.999819 101.057324 45.965595 Q 103.434496 44.931371 104.653955 43.326008 Q 105.873413 41.720645 106.351934 39.683069 Q 106.830456 37.645493 106.830456 33.848193 Z M 188.364363 36.564961 L 179.812719 35.021343 Q 179.380506 37.583749 177.852324 38.880388 Q 176.324142 40.177027 173.885226 40.177027 Q 170.643628 40.177027 168.714105 37.938781 Q 166.784583 35.700535 166.784583 30.452233 Q 166.784583 24.617357 168.744977 22.209313 Q 170.705372 19.801268 174.008715 19.801268 Q 176.478504 19.801268 178.052995 21.205961 Q 179.627485 22.610653 180.275805 26.037485 L 188.796576 24.586484 Q 187.469065 18.720736 183.702637 15.726117 Q 179.936209 12.731497 173.607374 12.731497 Q 166.414114 12.731497 162.138292 17.269735 Q 157.862470 21.807972 157.862470 29.834786 Q 157.862470 37.954217 162.153728 42.477018 Q 166.444987 46.999819 173.761736 46.999819 Q 179.750974 46.999819 183.285860 44.421977 Q 186.820745 41.844135 188.364363 36.564961 Z M 195.928092 50.704502 L 195.928092 58.731316 L 204.603226 58.731316 L 204.603226 50.704502 Z M 195.928092 13.472434 L 195.928092 46.258882 L 204.603226 46.258882 L 204.603226 13.472434 Z M 233.468884 23.907292 L 242.113145 22.456291 Q 240.446038 17.701948 236.849407 15.216723 Q 233.252777 12.731497 227.850114 12.731497 Q 219.298470 12.731497 215.192446 18.319395 Q 211.950848 22.795887 211.950848 29.618679 Q 211.950848 37.768983 216.211234 42.384401 Q 220.471620 46.999819 226.985688 46.999819 Q 234.302438 46.999819 238.531951 42.168294 Q 242.761465 37.336770 242.576231 27.364997 L 220.842088 27.364997 Q 220.934705 23.505952 222.941409 21.360323 Q 224.948112 19.214693 227.942731 19.214693 Q 229.980307 19.214693 231.369563 20.326098 Q 232.758820 21.437503 233.468884 23.907292 Z M 233.962842 32.675043 Q 233.870225 36.441471 232.017883 38.401866 Q 230.165541 40.362261 227.510518 40.362261 Q 224.670261 40.362261 222.817919 38.293813 Q 220.965577 36.225365 220.996450 32.675043 Z M 280.456618 13.472434 L 271.781485 13.472434 L 271.781485 30.205254 Q 271.781485 35.515300 271.225782 37.074355 Q 270.670080 38.633409 269.419749 39.497835 Q 268.169418 40.362261 266.409694 40.362261 Q 264.156011 40.362261 262.365414 39.127367 Q 260.574817 37.892472 259.911062 35.854896 Q 259.247306 33.817321 259.247306 28.322040 L 259.247306 13.472434 L 250.572172 13.472434 L 250.572172 46.258882 L 258.629859 46.258882 L 258.629859 41.442794 Q 262.921117 46.999819 269.435185 46.999819 Q 272.306315 46.999819 274.683487 45.965595 Q 277.060659 44.931371 278.280117 43.326008 Q 279.499575 41.720645 279.978097 39.683069 Q 280.456618 37.645493 280.456618 33.848193 Z M 318.830964 36.564961 L 310.279320 35.021343 Q 309.847107 37.583749 308.318925 38.880388 Q 306.790743 40.177027 304.351826 40.177027 Q 301.110228 40.177027 299.180706 37.938781 Q 297.251183 35.700535 297.251183 30.452233 Q 297.251183 24.617357 299.211578 22.209313 Q 301.171973 19.801268 304.475316 19.801268 Q 306.945105 19.801268 308.519595 21.205961 Q 310.094086 22.610653 310.742405 26.037485 L 319.263177 24.586484 Q 317.935666 18.720736 314.169237 15.726117 Q 310.402809 12.731497 304.073975 12.731497 Q 296.880715 12.731497 292.604893 17.269735 Q 288.329071 21.807972 288.329071 29.834786 Q 288.329071 37.954217 292.620329 42.477018 Q 296.911587 46.999819 304.228337 46.999819 Q 310.217575 46.999819 313.752461 44.421977 Q 317.287346 41.844135 318.830964 36.564961 Z M 345.381195 23.907292 L 354.025456 22.456291 Q 352.358349 17.701948 348.761719 15.216723 Q 345.165089 12.731497 339.762425 12.731497 Q 331.210781 12.731497 327.104757 18.319395 Q 323.863159 22.795887 323.863159 29.618679 Q 323.863159 37.768983 328.123545 42.384401 Q 332.383931 46.999819 338.897999 46.999819 Q 346.214749 46.999819 350.444262 42.168294 Q 354.673776 37.336770 354.488542 27.364997 L 332.754399 27.364997 Q 332.847016 23.505952 334.853720 21.360323 Q 336.860423 19.214693 339.855042 19.214693 Q 341.892618 19.214693 343.281875 20.326098 Q 344.671131 21.437503 345.381195 23.907292 Z M 345.875153 32.675043 Q 345.782536 36.441471 343.930194 38.401866 Q 342.077852 40.362261 339.422829 40.362261 Q 336.582572 40.362261 334.730230 38.293813 Q 332.877889 36.225365 332.908761 32.675043 Z M 408.638664 36.256237 L 400.766212 37.676366 Q 402.093724 42.430709 405.335322 44.715264 Q 408.576920 46.999819 414.967498 46.999819 Q 420.771503 46.999819 423.611760 45.625999 Q 426.452017 44.252179 427.609731 42.137422 Q 428.767444 40.022665 428.767444 34.373023 L 428.674827 24.246888 Q 428.674827 19.924758 429.091604 17.871746 Q 429.508381 15.818734 430.650658 13.472434 L 422.068142 13.472434 Q 421.728546 14.336860 421.234588 16.034840 Q 421.018481 16.806649 420.925864 17.053628 Q 418.703054 14.892563 416.171521 13.812030 Q 413.639987 12.731497 410.768857 12.731497 Q 405.705790 12.731497 402.788352 15.479138 Q 399.870914 18.226778 399.870914 22.425419 Q 399.870914 25.203932 401.198425 27.380433 Q 402.525937 29.556935 404.918545 30.714648 Q 407.311153 31.872362 411.818518 32.736788 Q 417.900373 33.879065 420.246672 34.866981 L 420.246672 35.731407 Q 420.246672 38.232068 419.011778 39.297165 Q 417.776883 40.362261 414.350051 40.362261 Q 412.034624 40.362261 410.737985 39.451527 Q 409.441346 38.540792 408.638664 36.256237 Z M 420.246672 29.217339 Q 418.579565 28.661636 414.967498 27.889827 Q 411.355432 27.118018 410.244027 26.377081 Q 408.546047 25.173059 408.546047 23.320718 Q 408.546047 21.499248 409.904431 20.171737 Q 411.262815 18.844225 413.362136 18.844225 Q 415.708435 18.844225 417.838628 20.387843 Q 419.413119 21.560993 419.907076 23.258973 Q 420.246672 24.370378 420.246672 27.488486 Z M 437.936536 13.472434 L 437.936536 58.731316 L 446.611669 58.731316 L 446.611669 42.430709 Q 450.625076 46.999819 456.120357 46.999819 Q 462.109595 46.999819 466.030385 42.662252 Q 469.951175 38.324685 469.951175 30.205254 Q 469.951175 21.807972 465.953204 17.269735 Q 461.955233 12.731497 456.243846 12.731497 Q 453.434461 12.731497 450.702257 14.136190 Q 447.970053 15.540882 445.994222 18.288523 L 445.994222 13.472434 Z M 446.549925 30.575723 Q 446.549925 25.481783 448.155287 23.042866 Q 450.408970 19.585162 454.144526 19.585162 Q 457.015655 19.585162 459.037795 22.039515 Q 461.059935 24.493867 461.059935 29.773041 Q 461.059935 35.391811 459.022359 37.877036 Q 456.984783 40.362261 453.804930 40.362261 Q 450.686821 40.362261 448.618373 37.938781 Q 446.549925 35.515300 446.549925 30.575723 Z" transform="scale(1.000000,1.000000) translate(284.707896,66.622873)" fill="#474746" opacity="1.000000"></path>
    </g>
</svg>